<svg xmlns="http://www.w3.org/2000/svg" height="512" viewBox="0 0 512 512" width="512" data-name="Layer 1"><path d="m104.5 512h303a33.038 33.038 0 0 0 33-33v-446a33.038 33.038 0 0 0 -33-33h-303a33.038 33.038 0 0 0 -33 33v446a33.038 33.038 0 0 0 33 33zm-17-479a17.019 17.019 0 0 1 17-17h303a17.019 17.019 0 0 1 17 17v446a17.019 17.019 0 0 1 -17 17h-303a17.019 17.019 0 0 1 -17-17zm168.5 447.752a23 23 0 1 0 -23-23 23.026 23.026 0 0 0 23 23zm0-30a7 7 0 1 1 -7 7 7.008 7.008 0 0 1 7-7zm-8-411.5a7.979 7.979 0 0 1 7.975-8h.05a8 8 0 1 1 -8.025 8z"></path></svg>