<svg xmlns="http://www.w3.org/2000/svg" height="512" viewBox="0 0 512 512" width="512" data-name="Layer 1"><path d="m479 111.938h-60.185a16.406 16.406 0 0 1 -14.722-8.5l-27.064-46.875a32.249 32.249 0 0 0 -28.578-16.5h-101.9a32.25 32.25 0 0 0 -28.579 16.5l-27.063 46.875a16.408 16.408 0 0 1 -14.722 8.5h-49.378v-14.938a15.142 15.142 0 0 0 -15.125-15.125h-37.5a15.141 15.141 0 0 0 -15.125 15.125v14.941h-26.059a33.037 33.037 0 0 0 -33 33v294a33.038 33.038 0 0 0 33 33h446a33.038 33.038 0 0 0 33-33v-294a33.037 33.037 0 0 0 -33-33.003zm-463 90h167.175a148.416 148.416 0 0 0 0 180h-167.175zm152.772 90c0-73.2 59.552-132.751 132.751-132.751s132.751 59.551 132.751 132.751-59.552 132.75-132.751 132.75-132.751-59.551-132.751-132.75zm281.5 0a147.979 147.979 0 0 0 -30.4-90h76.128v180h-76.128a147.979 147.979 0 0 0 30.402-90zm-375.213-194.066h35.75v14.066h-35.75zm-42.059 30.066h143.185a32.252 32.252 0 0 0 28.578-16.5l27.064-46.875a16.407 16.407 0 0 1 14.722-8.5h101.9a16.406 16.406 0 0 1 14.722 8.5l27.063 46.875a32.253 32.253 0 0 0 28.579 16.5h60.187a17.018 17.018 0 0 1 17 17v41h-89a7.894 7.894 0 0 0 -1.138.09 148.477 148.477 0 0 0 -208.581-.09h-181.281v-41a17.018 17.018 0 0 1 17-17zm446 328h-446a17.019 17.019 0 0 1 -17-17v-41h180.06a8.059 8.059 0 0 0 1.128-.088 148.488 148.488 0 0 0 209.147-.466 7.955 7.955 0 0 0 2.911.554h86.754v41a17.019 17.019 0 0 1 -17 17zm-248.8-334.557h134.6a8 8 0 0 0 6.928-12l-19.813-34.318a8 8 0 0 0 -6.928-4h-94.974a8 8 0 0 0 -6.928 4l-19.814 34.318a8 8 0 0 0 6.928 12zm24.433-34.318h85.736l10.576 18.318h-106.89zm46.891 318.625a113.751 113.751 0 1 0 -113.751-113.75 113.879 113.879 0 0 0 113.75 113.75zm0-211.5a97.751 97.751 0 1 1 -97.751 97.751 97.862 97.862 0 0 1 97.75-97.752zm-8 23.75a8 8 0 0 1 8-8 82.093 82.093 0 0 1 82 82 8 8 0 0 1 -16 0 66.074 66.074 0 0 0 -66-66 8 8 0 0 1 -8.001-8.001z"></path></svg>