<svg xmlns="http://www.w3.org/2000/svg" height="512" viewBox="0 0 512 512" width="512" data-name="Layer 1"><path d="m202.77 369.529c-14.9 30.461-33.608 54.516-54.254 69.655a8 8 0 0 0 -.71.591 36.2 36.2 0 0 0 -33.584 36.061v28.164a8 8 0 0 0 8 8h267.555a8 8 0 0 0 8-8v-28.164a36.2 36.2 0 0 0 -34.916-36.136 7.972 7.972 0 0 0 -2.188-2.644c-19.512-15.189-37.243-38.5-51.445-67.53 78.154-23.026 135.372-95.418 135.372-180.926 0-104-84.608-188.6-188.6-188.6s-188.595 84.6-188.595 188.6c0 85.508 57.212 157.9 135.365 180.929zm179.007 106.307v20.164h-251.555v-20.164a20.186 20.186 0 0 1 20.163-20.163h211.229a20.186 20.186 0 0 1 20.163 20.163zm-42.463-36.163h-166.614c17.494-16.757 33.174-39.287 45.94-66.173 0-.01.008-.02.013-.031a189.323 189.323 0 0 0 74.7 0c12.752 26.86 28.467 49.446 45.961 66.204zm-29.672-415.128v52.375a12.264 12.264 0 0 1 -12.25 12.25h-82.785a12.264 12.264 0 0 1 -12.25-12.25v-52.375a172.647 172.647 0 0 1 107.285 0zm-123.285 6.146v46.229a28.282 28.282 0 0 0 28.25 28.25h82.785a28.282 28.282 0 0 0 28.25-28.25v-46.229c60.578 26.822 102.958 87.503 102.958 157.909 0 95.17-77.426 172.6-172.6 172.6s-172.595-77.435-172.595-172.6c0-70.406 42.374-131.087 102.952-157.909zm61.643 21.894a7.978 7.978 0 0 1 7.975-8h.049a8 8 0 1 1 -8.024 8zm8 273.01a93.033 93.033 0 1 0 -93.033-93.032 93.137 93.137 0 0 0 93.033 93.037zm0-170.065a77.033 77.033 0 1 1 -77.033 77.033 77.12 77.12 0 0 1 77.033-77.033zm0 123.818a46.786 46.786 0 1 0 -46.786-46.785 46.839 46.839 0 0 0 46.786 46.785zm0-77.571a30.786 30.786 0 1 1 -30.786 30.786 30.821 30.821 0 0 1 30.786-30.786z"></path></svg>