<svg xmlns="http://www.w3.org/2000/svg" height="512" viewBox="0 0 512 512" width="512" data-name="Layer 1"><path d="m128.5 0a33.038 33.038 0 0 0 -33 33v446a33.038 33.038 0 0 0 33 33h255a33.038 33.038 0 0 0 33-33v-446a33.038 33.038 0 0 0 -33-33zm272 33v446a17.019 17.019 0 0 1 -17 17h-255a17.019 17.019 0 0 1 -17-17v-446a17.019 17.019 0 0 1 17-17h255a17.019 17.019 0 0 1 17 17zm-144.5 216.5a107 107 0 1 0 107 107 107.121 107.121 0 0 0 -107-107zm0 198a91 91 0 1 1 91-91 91.1 91.1 0 0 1 -91 91zm0-163.5a72.5 72.5 0 1 0 72.5 72.5 72.582 72.582 0 0 0 -72.5-72.5zm0 129a56.5 56.5 0 1 1 56.5-56.5 56.564 56.564 0 0 1 -56.5 56.5zm0-212.123a80.75 80.75 0 1 0 -80.75-80.75 80.842 80.842 0 0 0 80.75 80.75zm0-145.5a64.75 64.75 0 1 1 -64.75 64.75 64.824 64.824 0 0 1 64.75-64.75zm0 106.377a41.627 41.627 0 1 0 -41.628-41.627 41.674 41.674 0 0 0 41.628 41.627zm0-67.254a25.627 25.627 0 1 1 -25.628 25.627 25.656 25.656 0 0 1 25.628-25.627zm123.4-60.062a8 8 0 1 1 -.05 0zm-238.751 8a8.012 8.012 0 1 1 -8.049-8h.049a8 8 0 0 1 8 8zm246.751 427.124a8.013 8.013 0 1 1 -8.05-8h.05a8 8 0 0 1 8 8zm-246.751 0a8.012 8.012 0 1 1 -8.049-8h.049a8 8 0 0 1 8 8zm175.726-251a8 8 0 0 1 0 16h-120.75a8 8 0 0 1 0-16z"></path></svg>