<svg xmlns="http://www.w3.org/2000/svg" height="512" viewBox="0 0 512 512" width="512" data-name="Layer 1"><path d="m157 512h198a33.038 33.038 0 0 0 33-33v-446a33.038 33.038 0 0 0 -33-33h-198a33.038 33.038 0 0 0 -33 33v446a33.038 33.038 0 0 0 33 33zm-17-479a17.019 17.019 0 0 1 17-17h198a17.019 17.019 0 0 1 17 17v446a17.019 17.019 0 0 1 -17 17h-198a17.019 17.019 0 0 1 -17-17zm170.814 215.392-27.2-27.2a8 8 0 0 0 -9.2-1.517 41.769 41.769 0 0 1 -36.836 0 8 8 0 0 0 -9.2 1.517l-27.2 27.2a8 8 0 0 0 1.13 12.253 95.019 95.019 0 0 0 107.368 0 8 8 0 0 0 1.13-12.254zm-54.814 12.872a78.6 78.6 0 0 1 -36.263-8.8l16.125-16.126a57.933 57.933 0 0 0 40.275 0l16.125 16.124a78.59 78.59 0 0 1 -36.262 8.802zm72.52-136.123a8.016 8.016 0 0 0 -6.393 2.309l-27.2 27.2a8 8 0 0 0 -1.518 9.2 41.771 41.771 0 0 1 0 36.835 8 8 0 0 0 1.517 9.2l27.2 27.2a8 8 0 0 0 5.656 2.343q.368 0 .736-.034a8 8 0 0 0 5.861-3.439 95.019 95.019 0 0 0 0-107.368 8 8 0 0 0 -5.859-3.446zm-2.32 93.386-16.122-16.127a57.941 57.941 0 0 0 0-40.275l16.122-16.125a79.146 79.146 0 0 1 0 72.525zm-127.323-108.782a8 8 0 0 0 2.309 6.392l27.2 27.2a8 8 0 0 0 9.2 1.518 41.769 41.769 0 0 1 36.834 0 8 8 0 0 0 9.2-1.517l27.2-27.2a8 8 0 0 0 -1.13-12.253 95.019 95.019 0 0 0 -107.368 0 8 8 0 0 0 -3.445 5.86zm57.123-6.48a78.6 78.6 0 0 1 36.263 8.8l-16.125 16.125a57.944 57.944 0 0 0 -40.276 0l-16.124-16.124a78.59 78.59 0 0 1 36.262-8.801zm-72.52 136.123c.247.023.492.034.737.034a8 8 0 0 0 5.656-2.343l27.2-27.2a8 8 0 0 0 1.517-9.2 41.765 41.765 0 0 1 0-36.834 8 8 0 0 0 -1.517-9.2l-27.2-27.2a8 8 0 0 0 -12.253 1.13 95.014 95.014 0 0 0 0 107.368 8 8 0 0 0 5.86 3.445zm2.32-93.388 16.124 16.125a57.944 57.944 0 0 0 0 40.276l-16.124 16.126a79.14 79.14 0 0 1 0-72.526zm70.2 65.955a29.691 29.691 0 1 0 -29.691-29.691 29.724 29.724 0 0 0 29.691 29.691zm0-43.382a13.691 13.691 0 1 1 -13.691 13.691 13.706 13.706 0 0 1 13.691-13.691zm37.749 294.817a8 8 0 0 1 -8 8h-12.374a8 8 0 0 1 0-16h12.374a8 8 0 0 1 8 8zm-47.124 0a8 8 0 0 1 -8 8h-12.375a8 8 0 0 1 0-16h12.375a8 8 0 0 1 8 8zm94.249-52.876a8 8 0 0 1 -8 8h-12.374a8 8 0 0 1 0-16h12.375a8 8 0 0 1 7.999 8zm-47.125 0a8 8 0 0 1 -8 8h-12.374a8 8 0 0 1 0-16h12.374a8 8 0 0 1 8 8zm-47.124 0a8 8 0 0 1 -8 8h-12.375a8 8 0 0 1 0-16h12.375a8 8 0 0 1 8 8zm-47.125 0a8 8 0 0 1 -8 8h-12.375a8 8 0 0 1 0-16h12.375a8 8 0 0 1 8 8zm141.374-52.876a8 8 0 0 1 -8 8h-12.374a8 8 0 0 1 0-16h12.375a8 8 0 0 1 7.999 8zm-47.125 0a8 8 0 0 1 -8 8h-12.374a8 8 0 0 1 0-16h12.374a8 8 0 0 1 8 8zm-47.124 0a8 8 0 0 1 -8 8h-12.375a8 8 0 1 1 0-16h12.375a8 8 0 0 1 8 8zm-47.125 0a8 8 0 0 1 -8 8h-12.375a8 8 0 1 1 0-16h12.375a8 8 0 0 1 8 8zm141.374-52.875a8 8 0 0 1 -8 8h-12.374a8 8 0 0 1 0-16h12.375a8 8 0 0 1 7.999 8zm-47.125 0a8 8 0 0 1 -8 8h-12.374a8 8 0 0 1 0-16h12.374a8 8 0 0 1 8 8zm-47.124 0a8 8 0 0 1 -8 8h-12.375a8 8 0 1 1 0-16h12.375a8 8 0 0 1 8 8zm-47.125 0a8 8 0 0 1 -8 8h-12.375a8 8 0 0 1 0-16h12.375a8 8 0 0 1 8 8zm-7.875-223.153a20.5 20.5 0 1 0 -20.5-20.5 20.523 20.523 0 0 0 20.5 20.5zm0-25a4.5 4.5 0 1 1 -4.5 4.5 4.505 4.505 0 0 1 4.5-4.5zm128.749 25a20.5 20.5 0 1 0 -20.5-20.5 20.523 20.523 0 0 0 20.5 20.5zm0-25a4.5 4.5 0 1 1 -4.5 4.5 4.506 4.506 0 0 1 4.5-4.5z"></path></svg>