<svg xmlns="http://www.w3.org/2000/svg" height="512" viewBox="0 0 512 512" width="512" data-name="Layer 1"><path d="m112 33v446a33.038 33.038 0 0 0 33 33h222a33.038 33.038 0 0 0 33-33v-446a33.038 33.038 0 0 0 -33-33h-222a33.038 33.038 0 0 0 -33 33zm16 0a17.019 17.019 0 0 1 17-17h222a17.019 17.019 0 0 1 17 17v446a17.019 17.019 0 0 1 -17 17h-222a17.019 17.019 0 0 1 -17-17zm128 399.044a23 23 0 1 0 23 23 23.025 23.025 0 0 0 -23-23zm0 30a7 7 0 1 1 7-7 7.009 7.009 0 0 1 -7 7zm-8-425.5a7.979 7.979 0 0 1 7.975-8h.049a8 8 0 1 1 -8.024 8zm-91.007 186.784a8 8 0 0 1 .73-11.29 148.956 148.956 0 0 1 196.555 0 8 8 0 1 1 -10.56 12.02 132.957 132.957 0 0 0 -175.435 0 8 8 0 0 1 -11.29-.73zm172.682 28.853a8 8 0 0 1 -11.29.729 94.562 94.562 0 0 0 -124.77 0 8 8 0 1 1 -10.56-12.019 110.558 110.558 0 0 1 145.89 0 8 8 0 0 1 .73 11.29zm-25.334 28.854a8 8 0 0 1 -11.29.729 56.162 56.162 0 0 0 -74.1 0 8 8 0 1 1 -10.56-12.02 72.162 72.162 0 0 1 95.225 0 8 8 0 0 1 .725 11.291zm-48.341 9.165a23.39 23.39 0 1 0 23.39 23.39 23.416 23.416 0 0 0 -23.39-23.39zm0 30.78a7.39 7.39 0 1 1 7.39-7.39 7.4 7.4 0 0 1 -7.39 7.393z"></path></svg>