<svg xmlns="http://www.w3.org/2000/svg" height="512" viewBox="0 0 512 512" width="512" data-name="Layer 1"><path d="m422.383 98.437c-.062-.079-.126-.155-.191-.231-17.78-20.553-36.395-29.45-56.911-27.234-17.7 1.921-33.921 11.538-51.1 21.72-18.451 10.942-37.532 22.254-58.181 22.977-20.649-.723-39.73-12.035-58.186-22.977-17.174-10.182-33.4-19.8-51.095-21.72-20.516-2.231-39.131 6.681-56.911 27.234-.065.076-.129.152-.191.231a407.766 407.766 0 0 0 -87.171 299.642c.024.213.056.424.1.635a52.506 52.506 0 0 0 48.776 42.586c36.81 2.017 62.216-42.85 82.641-81.105.236.021.473.036.714.036h242.906c.156 0 .307-.014.46-.023 19.98 37.421 44.713 81.158 80.254 81.156q1.18 0 2.381-.064a52.506 52.506 0 0 0 48.78-42.588c.04-.211.072-.422.1-.635a407.766 407.766 0 0 0 -87.175-299.64zm-279.876 245.8c1.925-3.538 3.792-6.893 5.591-9.965 71.628 1.087 144.176 1.087 215.8 0 1.8 3.072 3.666 6.427 5.591 9.965zm351.179 51.763a36.528 36.528 0 0 1 -33.879 29.328c-28.164 1.559-52.44-44.075-70.169-77.379-5.1-9.583-9.921-18.635-14.447-25.956a8 8 0 0 0 -6.8-3.793h-.127c-74.49 1.18-150.03 1.18-224.52 0a7.968 7.968 0 0 0 -6.931 3.792c-4.526 7.321-9.345 16.373-14.447 25.956-17.438 32.757-41.21 77.421-68.781 77.417-.46 0-.925-.012-1.388-.038a36.528 36.528 0 0 1 -33.883-29.327 389.181 389.181 0 0 1 83.691-287.434c30.969-35.713 54.749-21.613 87.65-2.108 19.327 11.459 41.234 24.447 66.1 25.214.164.006.33.006.494 0 24.864-.767 46.771-13.755 66.1-25.214 32.9-19.5 56.68-33.606 87.65 2.108a389.181 389.181 0 0 1 83.687 287.434zm-357.2-209.575h-20.5a8 8 0 0 1 0-16h20.5v-20.5a8 8 0 0 1 16 0v20.5h20.5a8 8 0 0 1 0 16h-20.5v20.5a8 8 0 1 1 -16 0zm265.184-22.5-14.5 14.5 14.5 14.5a8 8 0 1 1 -11.313 11.314l-14.5-14.5-14.5 14.5a8 8 0 1 1 -11.314-11.314l14.5-14.5-14.5-14.5a8 8 0 0 1 11.314-11.315l14.5 14.5 14.5-14.5a8 8 0 0 1 11.313 11.315zm-228.92 59.748a39.434 39.434 0 1 0 39.434 39.433 39.478 39.478 0 0 0 -39.434-39.433zm0 62.867a23.434 23.434 0 1 1 23.434-23.434 23.461 23.461 0 0 1 -23.434 23.434zm166.5-62.867a39.434 39.434 0 1 0 39.434 39.433 39.478 39.478 0 0 0 -39.434-39.433zm0 62.867a23.434 23.434 0 1 1 23.434-23.434 23.46 23.46 0 0 1 -23.434 23.434zm-113.5-107.557a8 8 0 0 1 -8 8h-19.5a8 8 0 0 1 0-16h19.5a8 8 0 0 1 8 8zm58.5 0a8 8 0 0 1 -8 8h-19.5a8 8 0 0 1 0-16h19.5a8 8 0 0 1 8 8zm23 0a8 8 0 0 1 8-8h19.5a8 8 0 0 1 0 16h-19.5a8 8 0 0 1 -8-8z"></path></svg>