<svg xmlns="http://www.w3.org/2000/svg" height="512" viewBox="0 0 512 512" width="512" data-name="Layer 1"><path d="m485.446 206.31h-220.54a23.538 23.538 0 0 1 22.594-17.054 39.5 39.5 0 0 0 0-79h-148.5a23.5 23.5 0 0 1 0-47h180a8 8 0 0 0 0-16h-180a39.5 39.5 0 0 0 0 79h148.5a23.5 23.5 0 0 1 0 47 39.557 39.557 0 0 0 -38.965 33.054h-221.981a26.584 26.584 0 0 0 -26.554 26.553v205.327a26.584 26.584 0 0 0 26.554 26.554h458.892a26.584 26.584 0 0 0 26.554-26.554v-205.327a26.584 26.584 0 0 0 -26.554-26.553zm10.554 231.88a10.565 10.565 0 0 1 -10.554 10.554h-458.892a10.565 10.565 0 0 1 -10.554-10.554v-205.327a10.565 10.565 0 0 1 10.554-10.553h458.892a10.565 10.565 0 0 1 10.554 10.553zm-19-204.88h-442a8 8 0 0 0 -8 8v188.434a8 8 0 0 0 8 8h442a8 8 0 0 0 8-8v-188.434a8 8 0 0 0 -8-8zm-8 188.434h-426v-172.434h426zm-407.747-146.217a8 8 0 0 1 8-8h6a8 8 0 0 1 0 16h-6a8 8 0 0 1 -8-8zm36.749 0a8 8 0 0 1 8-8h6a8 8 0 1 1 0 16h-6a8 8 0 0 1 -8.002-8zm36.75 0a8 8 0 0 1 8-8h6a8 8 0 0 1 0 16h-6a8 8 0 0 1 -8-8zm36.749 0a8 8 0 0 1 8-8h6a8 8 0 1 1 0 16h-6a8 8 0 0 1 -8.001-8zm36.75 0a8 8 0 0 1 8-8h6a8 8 0 1 1 0 16h-6a8 8 0 0 1 -8-8zm36.749 0a8 8 0 0 1 8-8h6a8 8 0 0 1 0 16h-6a8 8 0 0 1 -8-8zm36.75 0a8 8 0 0 1 8-8h6a8 8 0 0 1 0 16h-6a8 8 0 0 1 -8-8zm36.749 0a8 8 0 0 1 8-8h6a8 8 0 0 1 0 16h-6a8 8 0 0 1 -7.999-8zm36.749 0a8 8 0 0 1 8-8h6a8 8 0 0 1 0 16h-6a8 8 0 0 1 -8-8zm36.75 0a8 8 0 0 1 8-8h6a8 8 0 0 1 0 16h-6a8 8 0 0 1 -7.998-8zm36.749 0a8 8 0 0 1 8-8h6a8 8 0 0 1 0 16h-6a8 8 0 0 1 -8-8zm-347.247 30.25a8 8 0 0 1 8-8h6a8 8 0 1 1 0 16h-6a8 8 0 0 1 -8-8zm36.75 0a8 8 0 0 1 8-8h6a8 8 0 1 1 0 16h-6a8 8 0 0 1 -7.999-8zm36.749 0a8 8 0 0 1 8-8h6a8 8 0 0 1 0 16h-6a8 8 0 0 1 -7.999-8zm36.75 0a8 8 0 0 1 8-8h6a8 8 0 0 1 0 16h-6a8 8 0 0 1 -7.999-8zm36.749 0a8 8 0 0 1 8-8h6a8 8 0 0 1 0 16h-6a8 8 0 0 1 -7.998-8zm36.749 0a8 8 0 0 1 8-8h6a8 8 0 0 1 0 16h-6a8 8 0 0 1 -7.999-8zm36.75 0a8 8 0 0 1 8-8h6a8 8 0 0 1 0 16h-6a8 8 0 0 1 -7.997-8zm36.749 0a8 8 0 0 1 8-8h6a8 8 0 0 1 0 16h-6a8 8 0 0 1 -7.999-8zm36.75 0a8 8 0 0 1 8-8h6a8 8 0 0 1 0 16h-6a8 8 0 0 1 -7.996-8zm36.749 0a8 8 0 0 1 8-8h6a8 8 0 0 1 0 16h-6a8 8 0 0 1 -7.999-8zm-350.992 30.249a8 8 0 0 1 8-8h6a8 8 0 0 1 0 16h-6a8 8 0 0 1 -8-8zm58.749 0a8 8 0 0 1 -8 8h-6a8 8 0 0 1 0-16h6a8 8 0 0 1 7.998 8zm36.75 0a8 8 0 0 1 -8 8h-6a8 8 0 0 1 0-16h6a8 8 0 0 1 8 8zm36.749 0a8 8 0 0 1 -8 8h-6a8 8 0 0 1 0-16h6a8 8 0 0 1 7.999 8zm36.75 0a8 8 0 0 1 -8 8h-6a8 8 0 0 1 0-16h6a8 8 0 0 1 8 8zm36.749 0a8 8 0 0 1 -8 8h-6a8 8 0 0 1 0-16h6a8 8 0 0 1 8 8zm36.75 0a8 8 0 0 1 -8 8h-6a8 8 0 0 1 0-16h6a8 8 0 0 1 8 8zm36.749 0a8 8 0 0 1 -8 8h-6a8 8 0 0 1 0-16h6a8 8 0 0 1 8.001 8zm22.749 8a8 8 0 0 1 0-16h6a8 8 0 0 1 0 16zm50.75-8a8 8 0 0 1 -8 8h-6a8 8 0 0 1 0-16h6a8 8 0 0 1 8.002 8zm36.75 0a8 8 0 0 1 -8 8h-6a8 8 0 0 1 0-16h6a8 8 0 0 1 8 8zm-347.248 30.25a8 8 0 0 1 -8 8h-6a8 8 0 0 1 0-16h6a8 8 0 0 1 8 8zm22.75 8a8 8 0 0 1 0-16h6a8 8 0 1 1 0 16zm42.749-16a8 8 0 1 1 0 16h-6a8 8 0 0 1 0-16zm36.75 0a8 8 0 1 1 0 16h-6a8 8 0 0 1 0-16zm36.749 0a8 8 0 0 1 0 16h-6a8 8 0 1 1 0-16zm36.75 0a8 8 0 0 1 0 16h-6a8 8 0 0 1 0-16zm36.749 0a8 8 0 0 1 0 16h-6a8 8 0 0 1 0-16zm36.75 0a8 8 0 0 1 0 16h-6a8 8 0 0 1 0-16zm44.749 8a8 8 0 0 1 -8 8h-6a8 8 0 0 1 0-16h6a8 8 0 0 1 8.004 8zm14.749 0a8 8 0 0 1 8-8h6a8 8 0 0 1 0 16h-6a8 8 0 0 1 -7.999-8zm-21.875 36a8 8 0 0 1 -8 8h-248.993a8 8 0 0 1 0-16h248.994a8 8 0 0 1 8 7.999zm-329.117-1.876a8 8 0 0 1 8-8h22.5a8 8 0 0 1 0 16h-22.5a8 8 0 0 1 -8-8zm389.5 0a8 8 0 0 1 -8 8h-22.5a8 8 0 1 1 0-16h22.5a8 8 0 0 1 7.995 8z"></path></svg>