<?xml version="1.0" encoding="UTF-8"?> <svg xmlns="http://www.w3.org/2000/svg" id="Layer_1" data-name="Layer 1" viewBox="0 0 512 512" width="512" height="512"><path d="M33,391H213.317C203.4,409.688,191.4,424.5,178.3,434.1l-.041.034A28.037,28.037,0,0,0,153,462v20a8,8,0,0,0,8,8H351a8,8,0,0,0,8-8V462a28.03,28.03,0,0,0-25.807-27.906,8,8,0,0,0-1.436-1.461c-12.33-9.6-23.663-23.887-33.079-41.632H479a33.038,33.038,0,0,0,33-33V55a33.037,33.037,0,0,0-33-33H33A33.037,33.037,0,0,0,0,55V358A33.038,33.038,0,0,0,33,391Zm310,71v12H169V462a12.013,12.013,0,0,1,12-12H331A12.013,12.013,0,0,1,343,462Zm-33.414-28H202.411c10.886-11.436,20.673-26,28.82-43h49.542C288.908,407.972,298.705,422.562,309.586,434ZM479,375H33a17.019,17.019,0,0,1-17-17V328.183H496V358A17.019,17.019,0,0,1,479,375Zm-18-62.817H51V73H461ZM33,38H479a17.019,17.019,0,0,1,17,17V312.183H477V65a8,8,0,0,0-8-8H43a8,8,0,0,0-8,8V312.183H16V55A17.019,17.019,0,0,1,33,38ZM264.025,351.592a8.013,8.013,0,1,1-8.05-8h.05A8,8,0,0,1,264.025,351.592Z"></path></svg> 