<?xml version="1.0" encoding="UTF-8"?> <svg xmlns="http://www.w3.org/2000/svg" id="Layer_1" height="512" viewBox="0 0 512 512" width="512" data-name="Layer 1"><path d="m471.749 353.079v-258.389a8 8 0 0 0 -8-8h-415.498a8 8 0 0 0 -8 8v258.389a8 8 0 0 0 8 8h415.5a8 8 0 0 0 7.998-8zm-16-8h-399.498v-242.389h399.5zm-415.634 107.23h431.77a40.161 40.161 0 0 0 40.115-40.115v-32.115a8 8 0 0 0 -8-8h-9.414a31.464 31.464 0 0 0 4.163-15.664v-265.06a31.7 31.7 0 0 0 -31.664-31.664h-422.17a31.7 31.7 0 0 0 -31.664 31.664v265.06a31.464 31.464 0 0 0 4.163 15.664h-9.414a8 8 0 0 0 -8 8v32.115a40.161 40.161 0 0 0 40.115 40.115zm-10.864-95.894v-265.06a15.682 15.682 0 0 1 15.664-15.664h422.17a15.682 15.682 0 0 1 15.664 15.664v265.06a15.682 15.682 0 0 1 -15.664 15.664h-422.17a15.682 15.682 0 0 1 -15.664-15.664zm174.132 31.664h105.234v13.937h-105.234zm-187.383 0h171.383v15.826a14.127 14.127 0 0 0 14.111 14.111h109.012a14.127 14.127 0 0 0 14.111-14.111v-15.826h171.383v24.115a24.142 24.142 0 0 1 -24.115 24.115h-431.77a24.142 24.142 0 0 1 -24.115-24.115z"></path></svg> 