<?xml version="1.0" encoding="UTF-8"?> <svg xmlns="http://www.w3.org/2000/svg" id="Layer_1" data-name="Layer 1" viewBox="0 0 512 512" width="512" height="512"><path d="M512,468.414V122.739A66.344,66.344,0,0,0,505.786,94,134.553,134.553,0,0,0,282.425,60.552a35.722,35.722,0,0,0-9.195,24.3v88.177a35.719,35.719,0,0,0,9.194,24.3,134.571,134.571,0,0,0,147.114,37.273V468.414a28.545,28.545,0,0,0,28.513,28.512h25.436A28.545,28.545,0,0,0,512,468.414ZM445.538,284.925H496v154H445.538Zm-42.884-59.711a117.855,117.855,0,0,1-108.236-38.47,19.642,19.642,0,0,1-5.188-13.712V84.855a19.645,19.645,0,0,1,5.188-13.713,118.553,118.553,0,0,1,196.8,29.474A51.087,51.087,0,0,1,496,122.739V268.925H445.538V222.586a8,8,0,0,0-11.432-7.226A118.491,118.491,0,0,1,402.654,225.214Zm42.884,243.2V454.925H496v13.489a12.527,12.527,0,0,1-12.513,12.512H458.051A12.527,12.527,0,0,1,445.538,468.414ZM322.872,105.694V146.31a8,8,0,0,1-16,0V105.694a8,8,0,0,1,16,0ZM415.006,70.87a8,8,0,0,1,5.98-14.841,100.651,100.651,0,0,1,45.165,36.034,8,8,0,1,1-13.14,9.128A84.692,84.692,0,0,0,415.006,70.87ZM28.513,496.926H53.949a28.545,28.545,0,0,0,28.513-28.512V234.607a134.561,134.561,0,0,0,147.115-37.273,35.726,35.726,0,0,0,9.193-24.3V84.855a35.727,35.727,0,0,0-9.193-24.3A134.555,134.555,0,0,0,6.214,94,66.344,66.344,0,0,0,0,122.739V468.414A28.545,28.545,0,0,0,28.513,496.926Zm37.949-58H16v-154H66.462Zm-12.513,42H28.513A12.527,12.527,0,0,1,16,468.414V454.925H66.462v13.489A12.527,12.527,0,0,1,53.949,480.926ZM20.784,100.616a118.328,118.328,0,0,1,88.563-67.944,120.393,120.393,0,0,1,19.677-1.626,117.746,117.746,0,0,1,88.559,40.1,19.648,19.648,0,0,1,5.187,13.713v88.177a19.65,19.65,0,0,1-5.187,13.713A118.572,118.572,0,0,1,77.894,215.36a8,8,0,0,0-11.432,7.226v46.339H16V122.739A51.087,51.087,0,0,1,20.784,100.616ZM189.128,146.31V105.694a8,8,0,0,1,16,0V146.31a8,8,0,0,1-16,0ZM45.849,92.063A100.651,100.651,0,0,1,91.014,56.029a8,8,0,0,1,5.98,14.841,84.692,84.692,0,0,0-38.005,30.321,8,8,0,0,1-13.14-9.128Z"></path></svg> 