<?xml version="1.0" encoding="UTF-8"?> <svg xmlns="http://www.w3.org/2000/svg" id="Layer_1" data-name="Layer 1" viewBox="0 0 512 512" width="512" height="512"><path d="M100.047,292.229a8.056,8.056,0,0,0,.867,1.092,177.016,177.016,0,0,1,44.844,85.736h0a33.093,33.093,0,0,0,29.309,26.427V431.66a33.463,33.463,0,0,0,24.162,32.1,57.525,57.525,0,0,0,113.542,0,33.463,33.463,0,0,0,24.162-32.1V405.483a33.1,33.1,0,0,0,29.31-26.427,177,177,0,0,1,44.844-85.735,8.142,8.142,0,0,0,.868-1.092A188.377,188.377,0,0,0,256.052,0h-.1a188.376,188.376,0,0,0-155.9,292.229ZM256,496a41.523,41.523,0,0,1-40.158-30.931h80.316A41.523,41.523,0,0,1,256,496Zm47.522-46.931H208.478a17.43,17.43,0,0,1-17.411-17.409v-26H320.933v26A17.43,17.43,0,0,1,303.522,449.069ZM256,278.563a16.009,16.009,0,0,1,15.992,15.991v95.1H240.008v-95.1A16.009,16.009,0,0,1,256,278.563ZM107.544,102.848A172.883,172.883,0,0,1,256,16,172.377,172.377,0,0,1,398.982,282.835a192.993,192.993,0,0,0-48.4,92.96,17.267,17.267,0,0,1-17.045,13.861H287.992v-95.1A32.05,32.05,0,0,0,264,263.575V218.456l10.571-19.786,11.516,21.553a8,8,0,0,0,7.056,4.231h68.42a8,8,0,0,0,0-16H297.938l-16.311-30.531a8,8,0,0,0-14.111,0L256,199.477l-11.516-21.554a8,8,0,0,0-14.111,0l-16.31,30.531H150.438a8,8,0,0,0,0,16h68.42a8,8,0,0,0,7.057-4.231l11.514-21.553L248,218.456v45.119a32.05,32.05,0,0,0-23.992,30.979v95.1H178.466A17.265,17.265,0,0,1,161.422,375.8h0a193.01,193.01,0,0,0-48.4-92.96A171.522,171.522,0,0,1,107.544,102.848Z"></path></svg> 