<?xml version="1.0" encoding="UTF-8"?> <svg xmlns="http://www.w3.org/2000/svg" id="Layer_1" height="512" viewBox="0 0 512 512" width="512" data-name="Layer 1"><path d="m390.608 236.878a41.636 41.636 0 0 0 -41.589 41.59v191.943a41.59 41.59 0 0 0 83.179 0v-.634a102.347 102.347 0 0 0 48.273-35.584 100.4 100.4 0 0 0 -.2-119.774c-1.077-1.448-2.207-2.854-3.36-4.241v-89.265a220.7 220.7 0 0 0 -376.968-156.057 219.362 219.362 0 0 0 -64.857 156.057v87.511a8.017 8.017 0 0 0 .156 1.568c-1.208 1.446-2.39 2.914-3.516 4.427a100.4 100.4 0 0 0 -.2 119.774 102.34 102.34 0 0 0 48.274 35.584v.634a41.59 41.59 0 0 0 83.179 0v-191.943a41.558 41.558 0 0 0 -70.418-29.934v-27.621c0-90.12 73.317-163.436 163.437-163.436s163.437 73.316 163.437 163.436v27.621a41.434 41.434 0 0 0 -28.827-11.656zm25.592 233.533a25.59 25.59 0 0 1 -51.179 0v-191.943a25.59 25.59 0 1 1 51.179 0zm67.991-95.972a84.8 84.8 0 0 1 -51.991 78.226v-156.447a84.679 84.679 0 0 1 51.989 78.221zm-456.378 0a84.679 84.679 0 0 1 51.987-78.221v156.448a84.8 84.8 0 0 1 -51.989-78.227zm67.987-95.971a25.59 25.59 0 1 1 51.179 0v191.943a25.59 25.59 0 0 1 -51.179 0zm286.934-184.289a179.437 179.437 0 0 0 -306.171 126.734v57.511a7.991 7.991 0 0 0 .208 1.789 101.855 101.855 0 0 0 -25.685 14.5v-73.8c0-112.99 91.924-204.913 204.914-204.913s204.914 91.923 204.914 204.913v73.8a101.883 101.883 0 0 0 -25.477-14.421v-59.379a178.16 178.16 0 0 0 -52.703-126.734z"></path></svg> 