<?xml version="1.0" encoding="UTF-8"?> <svg xmlns="http://www.w3.org/2000/svg" id="Layer_1" height="512" viewBox="0 0 512 512" width="512" data-name="Layer 1"><path d="m232.215 512h47.57a14.359 14.359 0 0 0 14.342-14.343v-20.636h24.986a41.793 41.793 0 0 0 41.746-41.746v-14.275h2.924a36.785 36.785 0 0 0 36.743-36.743v-38.985a8 8 0 0 0 -8-8h-16.826v-242.066a45.2 45.2 0 0 0 -74.468-34.477v-15.5a45.234 45.234 0 0 0 -90.468 0v15.5a45.2 45.2 0 0 0 -74.464 34.477v242.066h-16.826a8 8 0 0 0 -8 8v38.982a36.785 36.785 0 0 0 36.742 36.746h2.925v14.278a41.793 41.793 0 0 0 41.746 41.746h24.986v20.636a14.359 14.359 0 0 0 14.342 14.34zm45.912-16h-44.254v-18.979h44.254zm52.341-430.027a29.266 29.266 0 0 1 29.232 29.233v242.066h-58.466v-242.066a29.266 29.266 0 0 1 29.234-29.233zm-103.7-20.74a29.234 29.234 0 0 1 58.468 0v292.039h-58.47zm-74.468 49.973a29.234 29.234 0 0 1 58.468 0v242.066h-58.468zm-24.826 289.048v-30.982h257.052v30.982a20.766 20.766 0 0 1 -20.743 20.746h-215.567a20.766 20.766 0 0 1 -20.742-20.746zm39.667 51.021v-14.275h177.718v14.278a25.774 25.774 0 0 1 -25.746 25.746h-126.226a25.774 25.774 0 0 1 -25.746-25.749z"></path></svg> 