<?xml version="1.0" encoding="UTF-8"?> <svg xmlns="http://www.w3.org/2000/svg" id="Layer_1" height="512" viewBox="0 0 512 512" width="512" data-name="Layer 1"><path d="m42.54 329.227a7.965 7.965 0 0 0 1.03 3.253l14.816 25.66a8 8 0 0 0 6.927 4h41.6a8 8 0 0 0 6.928-4l15.638-27.086a7.9 7.9 0 0 0 .556-1.194h244.614a8.014 8.014 0 0 0 .831 2.07l15.132 26.21a8 8 0 0 0 6.928 4h41.6a8 8 0 0 0 6.928-4l15.605-27.03a7.993 7.993 0 0 0 .584-1.269 50.549 50.549 0 0 0 49.743-50.479v-79a50.555 50.555 0 0 0 -50.5-50.5h-411a50.555 50.555 0 0 0 -50.5 50.497v79a50.574 50.574 0 0 0 42.54 49.868zm59.76 16.913h-32.367l-9.4-16.28h51.167zm332.227 0h-32.368l-9.4-16.28h51.163zm-418.527-145.781a34.538 34.538 0 0 1 34.5-34.5h411a34.538 34.538 0 0 1 34.5 34.5v79a34.538 34.538 0 0 1 -34.5 34.5h-411a34.538 34.538 0 0 1 -34.5-34.5zm374.5 105.5a66 66 0 1 0 -66-66 66.071 66.071 0 0 0 66 65.997zm0-115.993a50 50 0 1 1 -50 50 50.053 50.053 0 0 1 50-50.003zm0 89.246a39.249 39.249 0 1 0 -39.25-39.249 39.293 39.293 0 0 0 39.25 39.246zm0-62.5a23.249 23.249 0 1 1 -23.25 23.249 23.275 23.275 0 0 1 23.25-23.25zm-303.974 83.088a28.389 28.389 0 1 0 -28.387-28.389 28.421 28.421 0 0 0 28.387 28.389zm0-40.777a12.389 12.389 0 1 1 -12.387 12.388 12.4 12.4 0 0 1 12.387-12.387zm-41.415-53.2a7.978 7.978 0 0 1 7.974-8h.052a8 8 0 1 1 -8.026 8zm33.415 0a7.979 7.979 0 0 1 7.975-8h.051a8 8 0 1 1 -8.026 8zm33.416 0a7.979 7.979 0 0 1 7.975-8h.051a8 8 0 1 1 -8.026 8zm39.8 77.636h152.327a8 8 0 0 0 8-8v-76.159a8 8 0 0 0 -8-8h-152.332a8 8 0 0 0 -8 8v76.165a8 8 0 0 0 8 7.996zm8-16v-22.081h136.327v22.083zm136.327-60.159v22.082h-136.332v-22.082z"></path></svg> 