<?xml version="1.0" encoding="UTF-8"?> <svg xmlns="http://www.w3.org/2000/svg" id="Layer_1" data-name="Layer 1" viewBox="0 0 512 512" width="512" height="512"><path d="M499.74,458.914a37.023,37.023,0,0,0,5.909-15.473l5.947-41a37.3,37.3,0,0,0-20.406-39.195L400.8,317.7a37.907,37.907,0,0,0-46.814,10.493l-29.5,37.778a6.071,6.071,0,0,1-7.106,2.056c-73.941-26.538-146.869-99.465-173.4-173.407a6.072,6.072,0,0,1,2.058-7.106l37.776-29.5A37.905,37.905,0,0,0,194.3,111.2L148.755,20.81A37.294,37.294,0,0,0,109.562.4l-41,5.947A37.042,37.042,0,0,0,53.085,12.26,116.464,116.464,0,0,0,1.393,102.7c-.007.11-.021.219-.034.338a253.872,253.872,0,0,0,3.556,75.456,336.571,336.571,0,0,0,24.146,74.692C50.606,300.87,83.422,347.5,123.96,388.04s87.169,73.353,134.853,94.9a336.606,336.606,0,0,0,74.69,24.148A265.637,265.637,0,0,0,383.631,512a233.277,233.277,0,0,0,25.321-1.358c.114-.012.229-.027.344-.035h.011A116.457,116.457,0,0,0,499.74,458.914ZM408.451,494.63c-.408.021-.815.061-1.228.105a238,238,0,0,1-70.7-3.361A320.645,320.645,0,0,1,265.4,468.358c-45.943-20.759-90.941-52.445-130.128-91.632S64.4,292.541,43.641,246.6a320.642,320.642,0,0,1-23.015-71.125,237.957,237.957,0,0,1-3.363-70.688c.046-.414.086-.833.107-1.238A100.388,100.388,0,0,1,61.929,25.594a21.079,21.079,0,0,1,8.926-3.409l41-5.947A22.792,22.792,0,0,1,115.134,16a21.465,21.465,0,0,1,19.333,12.009L180.011,118.4a21.6,21.6,0,0,1-6.053,27.005l-37.776,29.5a22,22,0,0,0-7.269,25.12c28.014,78.059,105,155.047,183.061,183.062a21.984,21.984,0,0,0,25.12-7.268l29.5-37.777a21.6,21.6,0,0,1,27-6.052l90.387,45.544a21.515,21.515,0,0,1,11.771,22.61l-5.947,41a21.087,21.087,0,0,1-3.408,8.925A100.393,100.393,0,0,1,408.451,494.63ZM297.23,15.983A8,8,0,1,1,298.261.017,229.059,229.059,0,0,1,511.983,213.738a8,8,0,0,1-7.467,8.5c-.176.012-.35.017-.524.017a8,8,0,0,1-7.975-7.484A213.061,213.061,0,0,0,297.23,15.983ZM294.357,60.1A168.841,168.841,0,0,1,451.9,217.643a8,8,0,0,1-7.468,8.5c-.175.011-.35.016-.523.016a8,8,0,0,1-7.976-7.484,152.843,152.843,0,0,0-142.6-142.6A8,8,0,1,1,294.357,60.1Zm-3.9,60.088A108.623,108.623,0,0,1,391.808,221.546a8,8,0,0,1-7.469,8.5c-.174.012-.35.017-.523.017a8,8,0,0,1-7.975-7.485,92.625,92.625,0,0,0-86.419-86.418,8,8,0,0,1,1.032-15.967ZM262.785,217.08a32.135,32.135,0,1,0,9.412-22.724A31.925,31.925,0,0,0,262.785,217.08Zm20.726-11.409a16.133,16.133,0,1,1-4.726,11.409A16.082,16.082,0,0,1,283.511,205.671Z"></path></svg> 